<svg xmlns="http://www.w3.org/2000/svg" xmlns:xlink="http://www.w3.org/1999/xlink" width="93" height="59.5477708089694" version="1.1" style=""><rect id="backgroundrect" width="100%" height="100%" x="0" y="0" fill="none" stroke="none" class="selected" style=""/>

<g class="currentLayer" style=""><title>Layer 1</title><g id="surface1" class="">
<path style=" stroke:none;fill-rule:nonzero;fill:rgb(0%,49.01886%,77.255249%);fill-opacity:1;" d="M86.186279546875,41.89412987232208 C85.362060546875,36.983972872322056 83.697998546875,32.36678587232211 81.354248546875,28.214441872322084 L12.244873546874999,28.214441872322084 C9.901123546874999,32.36678587232211 8.237060546875,36.983972872322056 7.412841546875001,41.89412987232208 L86.186279546875,41.89412987232208 " id="svg_1"/>
<path style=" stroke:none;fill-rule:nonzero;fill:rgb(0%,49.01886%,77.255249%);fill-opacity:1;" d="M64.627685546875,11.886316872322082 C59.260498546875,9.11678587232211 53.205810546875,7.558191872322084 46.799560546875,7.558191872322084 C40.455810546875,7.558191872322084 34.451904546875,9.089441872322082 29.119873546875,11.808191872322082 L29.119873546875,11.94100487232208 L64.627685546875,11.94100487232208 L64.627685546875,11.886316872322082 " id="svg_2"/>
<path style=" stroke:none;fill-rule:nonzero;fill:rgb(0%,49.01886%,77.255249%);fill-opacity:1;" d="M76.221435546875,20.905847872322056 C73.701904546875,18.077722872322056 70.807373546875,15.61287987232208 67.619873546875,13.59725487232208 L25.979248546875,13.59725487232208 C22.787841546875,15.61287987232208 19.897216546875,18.077722872322056 17.377685546875,20.905847872322056 L76.221435546875,20.905847872322056 " id="svg_3"/>
<path style=" stroke:none;fill-rule:nonzero;fill:rgb(0%,49.01886%,77.255249%);fill-opacity:1;" d="M13.080810546875,26.558191872322084 L80.518310546875,26.558191872322084 C79.662841546875,25.167566872322084 78.721435546875,23.83553587232211 77.713623546875,22.562097872322056 L15.885498546874999,22.562097872322056 C14.877685546875,23.83553587232211 13.940185546875,25.167566872322084 13.080810546875,26.558191872322084 " id="svg_4"/>
<path style=" stroke:none;fill-rule:nonzero;fill:rgb(0%,35.68573%,19.215393%);fill-opacity:1;" d="M82.506591546875,34.433191872322084 C81.522216546875,33.421472872322056 79.397216546875,33.968347872322056 76.834716546875,32.374597872322056 C75.928466546875,31.812097872322056 75.225341546875,31.511316872322084 74.608154546875,31.499597872322056 C74.553466546875,31.495691872322084 74.494873546875,31.499597872322056 74.444091546875,31.499597872322056 C73.944091546875,31.52303587232211 73.494873546875,31.675379872322083 73.026123546875,31.890222872322056 C72.143310546875,32.38241087232211 71.440185546875,33.28475487232208 70.881591546875,34.30037987232208 C70.401123546875,34.46053587232212 70.744873546875,34.589441872322084 69.440185546875,33.433191872322084 L68.119873546875,33.08162987232208 C67.729248546875,32.61287987232208 66.799560546875,30.089441872322084 65.526123546875,28.296472872322056 C63.963623546875,25.97616087232211 61.248779546875,22.191004872322083 58.604248546875,20.019129872322083 C55.299560546875,17.546472872322056 53.100341546875,18.60116087232211 50.963623546875,19.796472872322056 C48.815185546875,20.99178587232211 47.483154546875,22.862879872322083 45.389404546875,24.058191872322084 C43.135498546875,24.808191872322084 42.155029546875,25.901941872322084 42.155029546875,25.901941872322084 C42.155029546875,25.901941872322084 41.428466546875,25.827722872322056 40.631591546875,24.96053587232211 C39.838623546875,24.093347872322056 38.686279546875,24.808191872322084 36.436279546875,26.124597872322056 C34.194091546875,27.441004872322083 34.397216546875,27.183191872322084 31.928466546875,28.00741087232211 C28.748779546875,29.546472872322056 27.705810546875,31.925379872322083 27.393310546875,32.921472872322056 C27.518310546875,32.36678587232211 25.772216546875,33.761316872322084 25.131591546875,33.61287987232208 C24.912841546875,33.28475487232208 24.670654546875,32.948816872322084 24.408935546875,32.61678587232211 C23.412841546875,31.36678587232211 22.201904546875,30.17928587232211 21.424560546875,29.749597872322056 C20.522216546875,29.253504872322083 19.627685546875,29.417566872322084 19.225341546875,29.534754872322083 C19.209716546875,29.53866087232211 19.197998546875,29.542566872322084 19.178466546875,29.546472872322056 C19.162841546875,29.55428587232211 19.143310546875,29.558191872322084 19.127685546875,29.562097872322056 C17.084716546875,30.280847872322056 16.405029546875,32.76912987232208 14.643310546875,32.870691872322084 C13.092529546875,32.964441872322084 11.350341546875,33.671472872322056 9.889404546875,35.05037987232208 C15.373779546875,19.464441872322084 29.850341546875,8.308191872322082 46.799560546875,8.308191872322082 C63.756591546875,8.308191872322082 78.233154546875,19.472254872322083 83.713623546875,35.06600487232208 C83.280029546875,34.968347872322056 82.842529546875,34.780847872322056 82.506591546875,34.433191872322084 zM27.373779546875,32.983972872322056 C27.373779546875,32.983972872322056 27.373779546875,32.983972872322056 27.373779546875,32.980066872322084 zM46.799560546875,6.812097872322054 C24.354248546875,6.812097872322054 6.096435546875,25.687097872322056 6.096435546875,48.890222872322056 C6.096435546875,51.05037987232208 6.252685546875,53.218347872322056 6.565185546875,55.323816872322084 L6.666748546874999,55.96053587232211 L86.936279546875,55.96053587232211 L87.022216546875,55.323816872322084 C87.342529546875,53.218347872322056 87.498779546875,51.05428587232212 87.498779546875,48.890222872322056 C87.498779546875,25.687097872322056 69.240966546875,6.812097872322054 46.799560546875,6.812097872322054 " id="svg_5"/>
<path style=" stroke:none;fill-rule:nonzero;fill:rgb(0%,35.68573%,19.215393%);fill-opacity:1;" d="M87.557373546875,56.69491087232211 L5.955810546875,56.69491087232211 C5.455810546875,54.00741087232211 5.197998546874999,51.25741087232212 5.197998546874999,48.495691872322084 C5.197998546874999,24.800379872322083 23.842529546875,5.530847872322054 46.760498546875,5.530847872322054 C69.674560546875,5.530847872322054 88.315185546875,24.800379872322083 88.315185546875,48.495691872322084 C88.315185546875,51.25350487232208 88.065185546875,54.00741087232211 87.557373546875,56.69491087232211 zM46.760498546875,4.534754872322081 C23.311279546875,4.534754872322081 4.237060546875,24.261316872322084 4.237060546875,48.495691872322084 C4.237060546875,51.452722872322056 4.526123546874999,54.417566872322084 5.088623546874999,57.292566872322084 L5.162841546875001,57.683191872322084 L88.346435546875,57.683191872322084 L88.424560546875,57.292566872322084 C88.994873546875,54.41366087232212 89.276123546875,51.452722872322056 89.276123546875,48.495691872322084 C89.276123546875,24.261316872322084 70.205810546875,4.534754872322081 46.760498546875,4.534754872322081 " id="svg_6"/>
<path style=" stroke:none;fill-rule:nonzero;fill:rgb(100%,100%,100%);fill-opacity:1;" d="M39.889404546875,43.890222872322056 C33.565185546875,43.28475487232208 70.787841546875,38.827722872322056 70.881591546875,34.30037987232208 C70.822998546875,34.31991087232212 70.772216546875,34.323816872322084 70.686279546875,34.339441872322084 C70.295654546875,34.761316872322084 68.580810546875,35.53866087232212 67.268310546875,35.983972872322056 C60.237060546875,38.36678587232212 36.467529546875,41.526941872322084 34.315185546875,42.10116087232211 C33.053466546875,42.437097872322056 28.354248546875,43.47225487232208 30.596435546875,45.51522287232205 C31.592529546875,46.42537987232208 33.963623546875,46.358972872322056 35.674560546875,46.58553587232211 C39.580810546875,47.093347872322056 57.955810546875,46.67928587232211 47.369873546875,49.11287987232208 C44.010498546875,49.890222872322056 40.705810546875,50.823816872322084 37.369873546875,51.655847872322056 C35.682373546875,52.073816872322084 25.584716546875,54.55428587232212 19.276123546875,56.16366087232212 L43.037841546875,56.16366087232212 C46.854248546875,54.73787987232208 54.287841546875,51.140222872322056 58.697998546875,49.00350487232208 C66.498779546875,45.22225487232208 50.760498546875,44.92537987232208 39.889404546875,43.890222872322056 " id="svg_7"/>
<path style=" stroke:none;fill-rule:nonzero;fill:rgb(0%,35.68573%,19.215393%);fill-opacity:1;" d="M147.951904546875,49.19100487232208 C147.307373546875,49.61678587232211 146.557373546875,49.874597872322056 145.830810546875,49.901941872322084 C143.389404546875,49.89412987232208 141.920654546875,47.78866087232211 142.709716546875,45.56600487232208 C143.502685546875,43.34725487232208 146.221435546875,42.34725487232208 146.221435546875,42.34725487232208 C146.709716546875,42.14803587232212 147.338623546875,41.92928587232211 147.959716546875,41.76912987232208 zM158.615966546875,52.71053587232211 L158.615966546875,34.67928587232211 L158.612060546875,34.67537987232208 C158.612060546875,24.92928587232211 153.928466546875,20.480066872322084 147.303466546875,20.483972872322056 C143.979248546875,20.483972872322056 141.248779546875,21.167566872322084 139.354248546875,21.85116087232211 L136.408935546875,30.33553587232211 C136.408935546875,30.33553587232211 147.983154546875,24.88241087232211 147.983154546875,33.74178587232211 L147.983154546875,34.280847872322056 C147.983154546875,34.280847872322056 147.979248546875,34.280847872322056 147.979248546875,34.280847872322056 C147.979248546875,34.280847872322056 133.291748546875,36.52303587232211 132.979248546875,47.999597872322056 C132.975341546875,48.124597872322056 132.975341546875,48.67928587232211 132.975341546875,48.808191872322084 C132.975341546875,48.808191872322084 132.975341546875,48.808191872322084 132.979248546875,48.808191872322084 C132.826904546875,53.65975487232208 136.545654546875,57.65975487232208 142.123779546875,57.683191872322084 C144.115966546875,57.61287987232208 146.170654546875,56.905847872322056 147.940185546875,55.733972872322056 L147.940185546875,57.687097872322056 L160.014404546875,57.687097872322056 C159.127685546875,56.24178587232211 158.615966546875,54.53866087232212 158.615966546875,52.71053587232211 " id="svg_8"/>
<path style=" stroke:none;fill-rule:nonzero;fill:rgb(0%,35.68573%,19.215393%);fill-opacity:1;" d="M276.498779546875,49.19100487232208 C275.850341546875,49.61678587232211 275.100341546875,49.874597872322056 274.373779546875,49.901941872322084 C271.928466546875,49.89412987232208 270.463623546875,47.78866087232211 271.256591546875,45.56600487232208 C272.045654546875,43.34725487232208 274.764404546875,42.34725487232208 274.764404546875,42.34725487232208 C275.256591546875,42.14803587232212 275.881591546875,41.92928587232211 276.502685546875,41.76912987232208 zM287.158935546875,52.71053587232211 L287.158935546875,34.67537987232208 C287.155029546875,24.92928587232211 282.475341546875,20.480066872322084 275.842529546875,20.483972872322056 C272.522216546875,20.483972872322056 269.795654546875,21.167566872322084 267.901123546875,21.85116087232211 L264.955810546875,30.33553587232211 C264.955810546875,30.33553587232211 276.526123546875,24.88241087232211 276.526123546875,33.74178587232211 L276.526123546875,34.280847872322056 C276.526123546875,34.280847872322056 276.526123546875,34.280847872322056 276.522216546875,34.280847872322056 C276.522216546875,34.280847872322056 261.838623546875,36.52303587232211 261.518310546875,47.999597872322056 C261.518310546875,48.124597872322056 261.514404546875,48.67928587232211 261.514404546875,48.808191872322084 C261.514404546875,48.808191872322084 261.518310546875,48.808191872322084 261.526123546875,48.808191872322084 C261.369873546875,53.65975487232208 265.088623546875,57.65975487232208 270.670654546875,57.683191872322084 C272.662841546875,57.61287987232208 274.713623546875,56.905847872322056 276.487060546875,55.733972872322056 L276.487060546875,57.687097872322056 L288.557373546875,57.687097872322056 C287.670654546875,56.24178587232211 287.158935546875,54.53866087232212 287.158935546875,52.71053587232211 " id="svg_9"/>
<path style=" stroke:none;fill-rule:nonzero;fill:rgb(0%,35.68573%,19.215393%);fill-opacity:1;" d="M129.010498546875,18.550379872322083 C127.557373546875,17.124597872322056 126.264404546875,16.108972872322056 125.139404546875,15.511316872322082 C124.006591546875,14.905847872322054 122.834716546875,14.605066872322082 121.627685546875,14.605066872322082 C120.475341546875,14.605066872322082 119.533935546875,14.968347872322054 118.799560546875,15.687097872322054 C118.065185546875,16.405847872322056 117.697998546875,17.33553587232211 117.697998546875,18.448816872322084 C117.697998546875,19.636316872322084 117.955810546875,20.698816872322084 118.479248546875,21.644129872322083 C119.002685546875,22.566004872322083 119.928466546875,23.636316872322084 121.264404546875,24.858972872322056 C124.498779546875,27.827722872322056 126.846435546875,30.593347872322056 128.311279546875,33.19100487232208 C129.776123546875,35.749597872322056 130.514404546875,38.401941872322084 130.514404546875,41.140222872322056 C130.514404546875,45.99178587232211 129.147216546875,49.95662987232208 126.408935546875,53.05037987232208 C123.666748546875,56.140222872322056 120.143310546875,57.687097872322056 115.834716546875,57.687097872322056 C113.721435546875,57.687097872322056 111.940185546875,57.51522287232205 110.502685546875,57.183191872322084 C109.061279546875,56.83553587232211 107.291748546875,56.183191872322084 105.221435546875,55.218347872322056 L105.221435546875,42.12850487232208 C106.240966546875,43.75350487232208 107.572998546875,45.077722872322056 109.217529546875,46.09725487232208 C110.862060546875,47.11287987232208 112.471435546875,47.62850487232208 114.045654546875,47.62850487232208 C115.334716546875,47.62850487232208 116.377685546875,47.167566872322084 117.186279546875,46.25741087232212 C117.990966546875,45.35116087232212 118.397216546875,44.17537987232208 118.397216546875,42.72616087232212 C118.397216546875,41.27303587232212 118.112060546875,40.00350487232208 117.533935546875,38.901941872322084 C116.971435546875,37.83553587232211 115.951904546875,36.61678587232211 114.467529546875,35.25741087232212 C111.330810546875,32.38241087232211 109.045654546875,29.733972872322056 107.612060546875,27.300379872322083 C106.182373546875,24.886316872322084 105.467529546875,22.456629872322083 105.467529546875,19.999597872322056 C105.467529546875,15.46053587232211 106.787841546875,11.749597872322054 109.424560546875,8.86287987232208 C112.061279546875,5.980066872322082 115.447998546875,4.53866087232211 119.588623546875,4.53866087232211 C121.119873546875,4.53866087232211 122.760498546875,4.72616087232211 124.537841546875,5.112879872322081 C126.315185546875,5.499597872322054 127.799560546875,5.983972872322054 129.010498546875,6.577722872322054 L129.010498546875,18.550379872322083 " id="svg_10"/>
<path style=" stroke:none;fill-rule:nonzero;fill:rgb(0%,49.01886%,77.255249%);fill-opacity:1;" d="M202.95971654687497,16.831629872322083 C206.354248546875,16.831629872322083 209.10815454687503,14.08162987232208 209.10815454687503,10.683191872322082 C209.10815454687503,7.28866087232211 206.354248546875,4.53866087232211 202.95971654687497,4.53866087232211 C199.565185546875,4.53866087232211 196.815185546875,7.28866087232211 196.815185546875,10.683191872322082 C196.815185546875,14.08162987232208 199.565185546875,16.831629872322083 202.95971654687497,16.831629872322083 " id="svg_11"/>
<path style=" stroke:none;fill-rule:nonzero;fill:rgb(0%,35.68573%,19.215393%);fill-opacity:1;" d="M208.276123546875,25.46053587232211 C208.276123546875,23.63241087232211 208.791748546875,21.925379872322083 209.682373546875,20.480066872322084 L196.24096654687497,20.480066872322084 C197.13159154687497,21.925379872322083 197.643310546875,23.63241087232211 197.643310546875,25.46053587232211 L197.643310546875,52.71053587232211 C197.643310546875,54.53866087232212 197.13159154687497,56.24178587232211 196.244873546875,57.687097872322056 L209.67846654687497,57.687097872322056 C208.791748546875,56.24178587232211 208.276123546875,54.53866087232212 208.276123546875,52.71053587232211 L208.276123546875,25.46053587232211 " id="svg_12"/>
<path style=" stroke:none;fill-rule:nonzero;fill:rgb(0%,35.68573%,19.215393%);fill-opacity:1;" d="M192.026123546875,52.71053587232211 L192.026123546875,30.237879872322083 C192.026123546875,30.183191872322084 192.026123546875,30.13241087232211 192.026123546875,30.081629872322083 L192.026123546875,29.855066872322084 L192.018310546875,29.858972872322056 C191.73315454687503,20.749597872322056 182.86596654687497,20.483972872322056 182.86596654687497,20.483972872322056 C177.940185546875,20.483972872322056 175.596435546875,22.69491087232211 174.865966546875,23.566004872322083 L174.865966546875,20.483972872322056 L162.834716546875,20.483972872322056 C163.721435546875,21.92928587232211 164.237060546875,23.63241087232211 164.237060546875,25.46053587232211 L164.237060546875,52.71053587232211 C164.237060546875,54.53866087232212 163.721435546875,56.24178587232211 162.834716546875,57.687097872322056 L176.268310546875,57.687097872322056 C175.381591546875,56.24178587232211 174.865966546875,54.53866087232212 174.865966546875,52.71053587232211 L174.865966546875,31.61678587232211 C175.791748546875,30.858972872322056 176.94409154687497,30.42928587232211 178.17065454687503,30.42928587232211 C179.283935546875,30.42928587232211 180.13159154687497,30.886316872322084 180.721435546875,31.808191872322084 C181.30346654687497,32.72616087232211 181.393310546875,33.983972872322056 181.393310546875,35.687097872322056 L181.393310546875,52.71053587232211 C181.393310546875,54.53866087232212 180.88159154687497,56.24178587232211 179.994873546875,57.687097872322056 L193.424560546875,57.687097872322056 C192.53784154687497,56.24178587232211 192.026123546875,54.53866087232212 192.026123546875,52.71053587232211 " id="svg_13"/>
<path style=" stroke:none;fill-rule:nonzero;fill:rgb(0%,35.68573%,19.215393%);fill-opacity:1;" d="M246.75659154687497,57.687097872322056 L260.190185546875,57.687097872322056 C259.299560546875,56.24178587232211 258.787841546875,54.53866087232212 258.787841546875,52.71053587232211 L258.787841546875,30.237879872322083 L258.791748546875,30.237879872322083 C258.791748546875,30.183191872322084 258.791748546875,30.13241087232211 258.787841546875,30.081629872322083 L258.787841546875,29.855066872322084 L258.783935546875,29.858972872322056 C258.498779546875,20.749597872322056 249.627685546875,20.483972872322056 249.627685546875,20.483972872322056 C249.62377954687503,20.483972872322056 249.619873546875,20.483972872322056 249.61596654687497,20.483972872322056 C248.729248546875,20.448816872322084 243.63940454687503,20.448816872322084 240.104248546875,24.511316872322084 C237.479248546875,20.63241087232211 232.52221654687497,20.483972872322056 232.52221654687497,20.483972872322056 C227.604248546875,20.483972872322056 225.260498546875,22.69491087232211 224.53002954687503,23.566004872322083 L224.53002954687503,20.483972872322056 L212.494873546875,20.483972872322056 C213.38159154687497,21.92928587232211 213.901123546875,23.63241087232211 213.901123546875,25.46053587232211 L213.901123546875,52.71053587232211 C213.901123546875,54.53866087232212 213.385498546875,56.24178587232211 212.494873546875,57.687097872322056 L225.92846654687497,57.687097872322056 C225.041748546875,56.24178587232211 224.53002954687503,54.53866087232212 224.53002954687503,52.71053587232211 L224.53002954687503,31.61678587232211 C225.45190454687503,30.858972872322056 226.604248546875,30.42928587232211 227.83471654687497,30.42928587232211 C228.94409154687497,30.42928587232211 229.79565454687503,30.886316872322084 230.38159154687497,31.808191872322084 C230.963623546875,32.72616087232211 231.05346654687497,33.983972872322056 231.05346654687497,35.687097872322056 L231.05346654687497,52.71053587232211 C231.05346654687497,54.53866087232212 230.541748546875,56.24178587232211 229.651123546875,57.687097872322056 L243.088623546875,57.687097872322056 C242.20190454687503,56.24178587232211 241.68627954687503,54.53866087232212 241.68627954687503,52.71053587232211 L241.68627954687503,31.577722872322056 C242.60034154687497,30.843347872322056 243.729248546875,30.42928587232211 244.93627954687503,30.42928587232211 C246.04565454687503,30.42928587232211 246.893310546875,30.886316872322084 247.48315454687503,31.808191872322084 C248.065185546875,32.72616087232211 248.158935546875,33.983972872322056 248.158935546875,35.687097872322056 L248.158935546875,52.71053587232211 C248.158935546875,54.53866087232212 247.63940454687503,56.24178587232211 246.75659154687497,57.687097872322056 " id="svg_14"/>
<path style=" stroke:none;fill-rule:nonzero;fill:rgb(0%,49.01886%,77.255249%);fill-opacity:1;" d="M346.713623546875,49.19100487232208 C346.072998546875,49.61678587232211 345.322998546875,49.874597872322056 344.592529546875,49.901941872322084 C342.151123546875,49.89412987232208 340.686279546875,47.78866087232211 341.475341546875,45.56600487232208 C342.264404546875,43.34725487232208 344.987060546875,42.34725487232208 344.987060546875,42.34725487232208 C345.471435546875,42.14803587232212 346.096435546875,41.92928587232211 346.717529546875,41.76912987232208 zM357.377685546875,52.71053587232211 L357.377685546875,34.67537987232208 C357.373779546875,24.92928587232211 352.690185546875,20.480066872322084 346.061279546875,20.483972872322056 C342.740966546875,20.483972872322056 340.010498546875,21.167566872322084 338.123779546875,21.85116087232211 L335.174560546875,30.33553587232211 C335.174560546875,30.33553587232211 346.744873546875,24.88241087232211 346.744873546875,33.74178587232211 L346.744873546875,34.280847872322056 C346.744873546875,34.280847872322056 332.053466546875,36.52303587232211 331.740966546875,47.999597872322056 C331.737060546875,48.124597872322056 331.733154546875,48.67928587232211 331.733154546875,48.808191872322084 C331.733154546875,48.808191872322084 331.740966546875,48.808191872322084 331.744873546875,48.808191872322084 C331.588623546875,53.65975487232208 335.307373546875,57.65975487232208 340.885498546875,57.683191872322084 C342.881591546875,57.61287987232208 344.936279546875,56.905847872322056 346.705810546875,55.733972872322056 L346.705810546875,57.687097872322056 L358.776123546875,57.687097872322056 C357.889404546875,56.24178587232211 357.377685546875,54.53866087232212 357.377685546875,52.71053587232211 " id="svg_15"/>
<path style=" stroke:none;fill-rule:nonzero;fill:rgb(0%,49.01886%,77.255249%);fill-opacity:1;" d="M390.787841546875,52.71053587232211 L390.787841546875,30.237879872322083 C390.787841546875,30.183191872322084 390.787841546875,30.13241087232211 390.787841546875,30.081629872322083 L390.787841546875,29.855066872322084 L390.783935546875,29.858972872322056 C390.498779546875,20.749597872322056 381.623779546875,20.483972872322056 381.623779546875,20.483972872322056 C376.705810546875,20.483972872322056 374.358154546875,22.69491087232211 373.627685546875,23.566004872322083 L373.627685546875,20.483972872322056 L361.592529546875,20.483972872322056 C362.479248546875,21.92928587232211 362.998779546875,23.63241087232211 362.998779546875,25.46053587232211 L362.998779546875,52.71053587232211 C362.998779546875,54.53866087232212 362.483154546875,56.24178587232211 361.596435546875,57.687097872322056 L375.030029546875,57.687097872322056 C374.143310546875,56.24178587232211 373.627685546875,54.53866087232212 373.627685546875,52.71053587232211 L373.627685546875,31.61678587232211 C374.549560546875,30.858972872322056 375.709716546875,30.42928587232211 376.936279546875,30.42928587232211 C378.045654546875,30.42928587232211 378.889404546875,30.886316872322084 379.483154546875,31.808191872322084 C380.061279546875,32.72616087232211 380.155029546875,33.983972872322056 380.155029546875,35.687097872322056 L380.155029546875,52.71053587232211 C380.155029546875,54.53866087232212 379.639404546875,56.24178587232211 378.752685546875,57.687097872322056 L392.190185546875,57.687097872322056 C391.299560546875,56.24178587232211 390.787841546875,54.53866087232212 390.787841546875,52.71053587232211 " id="svg_16"/>
<path style=" stroke:none;fill-rule:nonzero;fill:rgb(0%,49.01886%,77.255249%);fill-opacity:1;" d="M314.920654546875,46.40975487232208 C313.506591546875,47.71053587232211 311.490966546875,48.35116087232212 308.877685546875,48.35116087232212 L308.686279546875,48.35116087232212 L308.686279546875,34.28866087232212 L308.822998546875,34.28866087232212 C311.459716546875,34.28866087232212 313.494873546875,34.858972872322056 314.908935546875,36.00741087232211 C316.330810546875,37.14803587232212 317.033935546875,38.78475487232208 317.033935546875,40.905847872322056 C317.033935546875,43.292566872322084 316.338623546875,45.12850487232208 314.920654546875,46.40975487232208 zM309.381591546875,13.370691872322082 C311.459716546875,13.370691872322082 313.061279546875,13.87850487232208 314.197998546875,14.901941872322082 C315.330810546875,15.917566872322082 315.897216546875,17.374597872322056 315.897216546875,19.280847872322056 C315.897216546875,21.405847872322056 315.299560546875,23.046472872322056 314.115966546875,24.191004872322083 C312.916748546875,25.327722872322056 311.240966546875,25.905847872322056 309.045654546875,25.905847872322056 L308.686279546875,25.905847872322056 L308.686279546875,13.370691872322082 zM324.701904546875,31.030847872322056 C323.670654546875,30.171472872322056 322.494873546875,29.433191872322084 321.135498546875,28.823816872322084 C321.760498546875,28.483972872322056 322.346435546875,28.097254872322083 322.865966546875,27.667566872322084 C325.737060546875,25.355066872322084 327.174560546875,22.089441872322084 327.174560546875,17.85116087232211 C327.174560546875,13.687097872322054 325.721435546875,10.429285872322112 322.791748546875,8.06991087232211 C319.869873546875,5.718347872322054 315.807373546875,4.53866087232211 310.635498546875,4.53866087232211 L295.764404546875,4.53866087232211 C296.655029546875,5.983972872322054 297.170654546875,7.687097872322054 297.170654546875,9.515222872322054 L297.170654546875,52.71053587232211 C297.170654546875,54.53866087232212 296.655029546875,56.24178587232211 295.768310546875,57.687097872322056 L311.584716546875,57.687097872322056 C317.295654546875,57.687097872322056 321.705810546875,56.36678587232212 324.811279546875,53.714441872322084 C327.912841546875,51.06991087232211 329.463623546875,47.28475487232208 329.463623546875,42.374597872322056 C329.463623546875,37.46053587232212 327.873779546875,33.67928587232211 324.701904546875,31.030847872322056 " id="svg_17"/>
<path style=" stroke:none;fill-rule:nonzero;fill:rgb(0%,49.01886%,77.255249%);fill-opacity:1;" d="M426.557373546875,54.14803587232212 C425.006591546875,52.011316872322084 422.498779546875,48.448816872322084 419.045654546875,43.464441872322084 L415.143310546875,37.84725487232208 L416.565185546875,35.812097872322056 C420.018310546875,30.980066872322084 424.295654546875,26.394129872322083 425.963623546875,24.265222872322056 C427.627685546875,22.140222872322056 428.795654546875,20.878504872322083 429.436279546875,20.483972872322056 L415.740966546875,20.483972872322056 C415.682373546875,21.675379872322083 415.494873546875,22.761316872322084 415.143310546875,23.733972872322056 C414.799560546875,24.706629872322083 414.240966546875,25.78866087232211 413.459716546875,26.956629872322083 L407.041748546875,35.280847872322056 L407.041748546875,9.515222872322054 C407.041748546875,7.687097872322054 407.553466546875,5.983972872322054 408.440185546875,4.53866087232211 L395.002685546875,4.53866087232211 C395.893310546875,5.983972872322054 396.408935546875,7.687097872322054 396.408935546875,9.515222872322054 L396.408935546875,52.71053587232211 C396.408935546875,54.53866087232212 395.893310546875,56.24178587232211 395.006591546875,57.687097872322056 L408.440185546875,57.687097872322056 C407.549560546875,56.24178587232211 407.041748546875,54.53866087232212 407.041748546875,52.71053587232211 L407.041748546875,42.81600487232208 L414.143310546875,54.42928587232211 C414.315185546875,54.718347872322056 414.518310546875,55.11287987232208 414.756591546875,55.59725487232208 C414.998779546875,56.08162987232208 415.330810546875,56.780847872322056 415.729248546875,57.687097872322056 L429.436279546875,57.687097872322056 C429.088623546875,57.468347872322056 428.127685546875,56.28475487232208 426.557373546875,54.14803587232212 " id="svg_18"/>
</g></g></svg>