<svg xmlns="http://www.w3.org/2000/svg" xmlns:xlink="http://www.w3.org/1999/xlink" width="336.9565233362871" height="62.782608518190386" version="1.1" style=""><rect id="backgroundrect" width="100%" height="100%" x="0" y="0" fill="none" stroke="none" class="selected" style=""/>

<g class="currentLayer" style=""><title>Layer 1</title><g id="surface1" class="selected">
<path style=" stroke:none;fill-rule:nonzero;fill:rgb(0%,49.01886%,77.255249%);fill-opacity:1;" d="M-9.355125177246094,40.62024450302124 C-10.179344177246094,35.710087503021214 -11.843406177246095,31.09290050302127 -14.187156177246095,26.94055650302124 L-83.2965311772461,26.94055650302124 C-85.6402811772461,31.09290050302127 -87.3043441772461,35.710087503021214 -88.1285631772461,40.62024450302124 L-9.355125177246094,40.62024450302124 " id="svg_1"/>
<path style=" stroke:none;fill-rule:nonzero;fill:rgb(0%,49.01886%,77.255249%);fill-opacity:1;" d="M-30.913719177246094,10.61243150302124 C-36.280906177246095,7.842900503021268 -42.335594177246094,6.284306503021241 -48.741844177246094,6.284306503021241 C-55.085594177246094,6.284306503021241 -61.089500177246094,7.81555650302124 -66.4215311772461,10.53430650302124 L-66.4215311772461,10.667119503021238 L-30.913719177246094,10.667119503021238 L-30.913719177246094,10.61243150302124 " id="svg_2"/>
<path style=" stroke:none;fill-rule:nonzero;fill:rgb(0%,49.01886%,77.255249%);fill-opacity:1;" d="M-19.319969177246094,19.631962503021214 C-21.839500177246094,16.803837503021214 -24.734031177246095,14.338994503021238 -27.921531177246095,12.323369503021238 L-69.5621561772461,12.323369503021238 C-72.7535631772461,14.338994503021238 -75.6441881772461,16.803837503021214 -78.1637191772461,19.631962503021214 L-19.319969177246094,19.631962503021214 " id="svg_3"/>
<path style=" stroke:none;fill-rule:nonzero;fill:rgb(0%,49.01886%,77.255249%);fill-opacity:1;" d="M-82.4605941772461,25.28430650302124 L-15.023094177246094,25.28430650302124 C-15.878563177246093,23.89368150302124 -16.819969177246094,22.56165050302127 -17.827781177246095,21.288212503021214 L-79.6559061772461,21.288212503021214 C-80.6637191772461,22.56165050302127 -81.6012191772461,23.89368150302124 -82.4605941772461,25.28430650302124 " id="svg_4"/>
<path style=" stroke:none;fill-rule:nonzero;fill:rgb(0%,35.68573%,19.215393%);fill-opacity:1;" d="M-13.034813177246093,33.15930650302124 C-14.019188177246093,32.147587503021214 -16.144188177246093,32.694462503021214 -18.706688177246093,31.100712503021214 C-19.612938177246093,30.538212503021214 -20.316063177246093,30.23743150302124 -20.933250177246094,30.225712503021214 C-20.987938177246093,30.22180650302124 -21.046531177246095,30.225712503021214 -21.097313177246093,30.225712503021214 C-21.597313177246093,30.24915050302127 -22.046531177246095,30.40149450302124 -22.515281177246095,30.616337503021214 C-23.398094177246094,31.10852550302127 -24.101219177246094,32.01086950302124 -24.659813177246093,33.02649450302124 C-25.140281177246095,33.186650503021276 -24.796531177246095,33.31555650302124 -26.101219177246094,32.15930650302124 L-27.421531177246095,31.80774450302124 C-27.812156177246095,31.33899450302124 -28.741844177246094,28.81555650302124 -30.015281177246095,27.022587503021214 C-31.577781177246095,24.70227550302127 -34.292625177246094,20.91711950302124 -36.937156177246095,18.74524450302124 C-40.241844177246094,16.272587503021214 -42.44106317724609,17.32727550302127 -44.577781177246095,18.522587503021214 C-46.726219177246094,19.71790050302127 -48.058250177246094,21.58899450302124 -50.152000177246094,22.78430650302124 C-52.405906177246095,23.53430650302124 -53.386375177246094,24.62805650302124 -53.386375177246094,24.62805650302124 C-53.386375177246094,24.62805650302124 -54.11293817724609,24.553837503021214 -54.90981317724609,23.68665050302127 C-55.702781177246095,22.819462503021214 -56.855125177246094,23.53430650302124 -59.105125177246094,24.850712503021214 C-61.34731317724609,26.16711950302124 -61.14418817724609,25.90930650302124 -63.61293817724609,26.73352550302127 C-66.7926251772461,28.272587503021214 -67.8355941772461,30.65149450302124 -68.1480941772461,31.647587503021214 C-68.0230941772461,31.09290050302127 -69.7691881772461,32.48743150302124 -70.4098131772461,32.33899450302124 C-70.6285631772461,32.01086950302124 -70.8707501772461,31.67493150302124 -71.1324691772461,31.34290050302127 C-72.1285631772461,30.09290050302127 -73.3395001772461,28.90540050302127 -74.1168441772461,28.475712503021214 C-75.0191881772461,27.97961950302124 -75.9137191772461,28.14368150302124 -76.3160631772461,28.26086950302124 C-76.3316881772461,28.26477550302127 -76.3434061772461,28.26868150302124 -76.3629381772461,28.272587503021214 C-76.3785631772461,28.28040050302127 -76.3980941772461,28.28430650302124 -76.4137191772461,28.288212503021214 C-78.4566881772461,29.006962503021214 -79.1363751772461,31.49524450302124 -80.8980941772461,31.59680650302124 C-82.4488751772461,31.69055650302124 -84.1910631772461,32.397587503021214 -85.6520001772461,33.77649450302124 C-80.1676251772461,18.19055650302124 -65.6910631772461,7.03430650302124 -48.741844177246094,7.03430650302124 C-31.784813177246093,7.03430650302124 -17.308250177246094,18.19836950302124 -11.827781177246095,33.79211950302124 C-12.261375177246094,33.694462503021214 -12.698875177246094,33.506962503021214 -13.034813177246093,33.15930650302124 zM-68.1676251772461,31.710087503021214 C-68.1676251772461,31.710087503021214 -68.1676251772461,31.710087503021214 -68.1676251772461,31.70618150302124 zM-48.741844177246094,5.538212503021212 C-71.1871561772461,5.538212503021212 -89.4449691772461,24.413212503021214 -89.4449691772461,47.616337503021214 C-89.4449691772461,49.77649450302124 -89.2887191772461,51.944462503021214 -88.9762191772461,54.04993150302124 L-88.8746561772461,54.68665050302127 L-8.605125177246094,54.68665050302127 L-8.519188177246093,54.04993150302124 C-8.198875177246094,51.944462503021214 -8.042625177246094,49.780400503021276 -8.042625177246094,47.616337503021214 C-8.042625177246094,24.413212503021214 -26.300438177246093,5.538212503021212 -48.741844177246094,5.538212503021212 " id="svg_5"/>
<path style=" stroke:none;fill-rule:nonzero;fill:rgb(0%,35.68573%,19.215393%);fill-opacity:1;" d="M-7.984031177246095,55.42102550302127 L-89.5855941772461,55.42102550302127 C-90.0855941772461,52.73352550302127 -90.3434061772461,49.983525503021276 -90.3434061772461,47.22180650302124 C-90.3434061772461,23.52649450302124 -71.6988751772461,4.256962503021212 -48.780906177246095,4.256962503021212 C-25.866844177246094,4.256962503021212 -7.226219177246094,23.52649450302124 -7.226219177246094,47.22180650302124 C-7.226219177246094,49.97961950302124 -7.476219177246094,52.73352550302127 -7.984031177246095,55.42102550302127 zM-48.780906177246095,3.2608695030212385 C-72.2301251772461,3.2608695030212385 -91.3043441772461,22.98743150302124 -91.3043441772461,47.22180650302124 C-91.3043441772461,50.178837503021214 -91.0152811772461,53.14368150302124 -90.4527811772461,56.01868150302124 L-90.3785631772461,56.40930650302124 L-7.194969177246094,56.40930650302124 L-7.116844177246094,56.01868150302124 C-6.546531177246095,53.139775503021276 -6.265281177246095,50.178837503021214 -6.265281177246095,47.22180650302124 C-6.265281177246095,22.98743150302124 -25.335594177246094,3.2608695030212385 -48.780906177246095,3.2608695030212385 " id="svg_6"/>
<path style=" stroke:none;fill-rule:nonzero;fill:rgb(100%,100%,100%);fill-opacity:1;" d="M-55.652000177246094,42.616337503021214 C-61.976219177246094,42.01086950302124 -24.753563177246093,37.553837503021214 -24.659813177246093,33.02649450302124 C-24.718406177246095,33.046025503021276 -24.769188177246093,33.04993150302124 -24.855125177246094,33.06555650302124 C-25.245750177246094,33.48743150302124 -26.960594177246094,34.264775503021276 -28.273094177246094,34.710087503021214 C-35.304344177246094,37.092900503021276 -59.073875177246094,40.25305650302124 -61.226219177246094,40.82727550302127 C-62.48793817724609,41.163212503021214 -67.1871561772461,42.19836950302124 -64.9449691772461,44.24133750302121 C-63.948875177246094,45.15149450302124 -61.577781177246095,45.085087503021214 -59.866844177246094,45.31165050302127 C-55.960594177246094,45.819462503021214 -37.585594177246094,45.40540050302127 -48.171531177246095,47.83899450302124 C-51.530906177246095,48.616337503021214 -54.835594177246094,49.54993150302124 -58.171531177246095,50.381962503021214 C-59.859031177246095,50.79993150302124 -69.9566881772461,53.280400503021276 -76.2652811772461,54.889775503021276 L-52.50356317724609,54.889775503021276 C-48.687156177246095,53.46399450302124 -41.25356317724609,49.866337503021214 -36.843406177246095,47.72961950302124 C-29.042625177246094,43.94836950302124 -44.780906177246095,43.65149450302124 -55.652000177246094,42.616337503021214 " id="svg_7"/>
<path style=" stroke:none;fill-rule:nonzero;fill:rgb(0%,35.68573%,19.215393%);fill-opacity:1;" d="M52.410499822753906,47.91711950302124 C51.765968822753905,48.34290050302127 51.015968822753905,48.600712503021214 50.289405822753906,48.62805650302124 C47.847999822753906,48.62024450302124 46.379249822753906,46.51477550302127 47.16831182275391,44.29211950302124 C47.961280822753906,42.07336950302124 50.680030822753906,41.07336950302124 50.680030822753906,41.07336950302124 C51.16831182275391,40.874150503021276 51.797218822753905,40.65540050302127 52.41831182275391,40.49524450302124 zM63.07456182275391,51.43665050302127 L63.07456182275391,33.40540050302127 L63.070655822753906,33.40149450302124 C63.070655822753906,23.65540050302127 58.38706182275391,19.20618150302124 51.76206182275391,19.210087503021214 C48.437843822753905,19.210087503021214 45.707374822753906,19.89368150302124 43.812843822753905,20.57727550302127 L40.867530822753906,29.06165050302127 C40.867530822753906,29.06165050302127 52.441749822753906,23.60852550302127 52.441749822753906,32.46790050302127 L52.441749822753906,33.006962503021214 C52.441749822753906,33.006962503021214 52.437843822753905,33.006962503021214 52.437843822753905,33.006962503021214 C52.437843822753905,33.006962503021214 37.750343822753905,35.24915050302127 37.437843822753905,46.725712503021214 C37.43393682275391,46.850712503021214 37.43393682275391,47.40540050302127 37.43393682275391,47.53430650302124 C37.43393682275391,47.53430650302124 37.43393682275391,47.53430650302124 37.437843822753905,47.53430650302124 C37.285499822753906,52.38586950302124 41.004249822753906,56.38586950302124 46.582374822753906,56.40930650302124 C48.57456182275391,56.33899450302124 50.629249822753906,55.631962503021214 52.398780822753906,54.460087503021214 L52.398780822753906,56.413212503021214 L64.4729998227539,56.413212503021214 C63.586280822753906,54.96790050302127 63.07456182275391,53.264775503021276 63.07456182275391,51.43665050302127 " id="svg_8"/>
<path style=" stroke:none;fill-rule:nonzero;fill:rgb(0%,35.68573%,19.215393%);fill-opacity:1;" d="M180.95737482275393,47.91711950302124 C180.30893682275388,48.34290050302127 179.55893682275388,48.600712503021214 178.83237482275393,48.62805650302124 C176.38706182275388,48.62024450302124 174.9222188227539,46.51477550302127 175.71518682275388,44.29211950302124 C176.50424982275393,42.07336950302124 179.22299982275393,41.07336950302124 179.22299982275393,41.07336950302124 C179.71518682275388,40.874150503021276 180.34018682275388,40.65540050302127 180.9612808227539,40.49524450302124 zM191.6175308227539,51.43665050302127 L191.6175308227539,33.40149450302124 C191.61362482275393,23.65540050302127 186.93393682275388,19.20618150302124 180.30112482275393,19.210087503021214 C176.98081182275388,19.210087503021214 174.25424982275393,19.89368150302124 172.3597188227539,20.57727550302127 L169.4144058227539,29.06165050302127 C169.4144058227539,29.06165050302127 180.9847188227539,23.60852550302127 180.9847188227539,32.46790050302127 L180.9847188227539,33.006962503021214 C180.9847188227539,33.006962503021214 180.9847188227539,33.006962503021214 180.98081182275388,33.006962503021214 C180.98081182275388,33.006962503021214 166.2972188227539,35.24915050302127 165.9769058227539,46.725712503021214 C165.9769058227539,46.850712503021214 165.97299982275393,47.40540050302127 165.97299982275393,47.53430650302124 C165.97299982275393,47.53430650302124 165.9769058227539,47.53430650302124 165.9847188227539,47.53430650302124 C165.8284688227539,52.38586950302124 169.5472188227539,56.38586950302124 175.12924982275393,56.40930650302124 C177.12143682275388,56.33899450302124 179.1722188227539,55.631962503021214 180.9456558227539,54.460087503021214 L180.9456558227539,56.413212503021214 L193.0159688227539,56.413212503021214 C192.12924982275393,54.96790050302127 191.6175308227539,53.264775503021276 191.6175308227539,51.43665050302127 " id="svg_9"/>
<path style=" stroke:none;fill-rule:nonzero;fill:rgb(0%,35.68573%,19.215393%);fill-opacity:1;" d="M33.469093822753905,17.27649450302124 C32.015968822753905,15.850712503021212 30.722999822753906,14.835087503021212 29.597999822753906,14.23743150302124 C28.465186822753907,13.631962503021212 27.293311822753907,13.33118150302124 26.086280822753906,13.33118150302124 C24.933936822753907,13.33118150302124 23.992530822753906,13.694462503021212 23.258155822753906,14.413212503021212 C22.523780822753906,15.131962503021212 22.156593822753905,16.06165050302127 22.156593822753905,17.17493150302124 C22.156593822753905,18.36243150302124 22.414405822753906,19.42493150302124 22.937843822753905,20.37024450302124 C23.461280822753906,21.29211950302124 24.387061822753907,22.36243150302124 25.722999822753906,23.585087503021214 C28.957374822753906,26.553837503021214 31.305030822753906,29.319462503021214 32.769874822753906,31.91711950302124 C34.234718822753905,34.475712503021214 34.972999822753906,37.12805650302124 34.972999822753906,39.866337503021214 C34.972999822753906,44.71790050302127 33.60581182275391,48.68274450302124 30.867530822753906,51.77649450302124 C28.125343822753905,54.866337503021214 24.601905822753906,56.413212503021214 20.293311822753907,56.413212503021214 C18.180030822753906,56.413212503021214 16.398780822753906,56.24133750302121 14.961280822753906,55.90930650302124 C13.519874822753906,55.56165050302127 11.750343822753905,54.90930650302124 9.680030822753906,53.944462503021214 L9.680030822753906,40.85461950302124 C10.699561822753907,42.47961950302124 12.031593822753905,43.803837503021214 13.676124822753906,44.82336950302124 C15.320655822753906,45.83899450302124 16.930030822753906,46.35461950302124 18.504249822753906,46.35461950302124 C19.793311822753907,46.35461950302124 20.836280822753906,45.89368150302124 21.644874822753906,44.983525503021276 C22.449561822753907,44.077275503021276 22.855811822753907,42.90149450302124 22.855811822753907,41.452275503021276 C22.855811822753907,39.999150503021276 22.570655822753906,38.72961950302124 21.992530822753906,37.62805650302124 C21.430030822753906,36.56165050302127 20.410499822753906,35.34290050302127 18.926124822753906,33.983525503021276 C15.789405822753906,31.10852550302127 13.504249822753906,28.460087503021214 12.070655822753906,26.02649450302124 C10.640968822753905,23.61243150302124 9.926124822753906,21.18274450302124 9.926124822753906,18.725712503021214 C9.926124822753906,14.186650503021268 11.246436822753907,10.475712503021212 13.883155822753906,7.5889945030212385 C16.519874822753906,4.70618150302124 19.906593822753905,3.2647755030212675 24.047218822753905,3.2647755030212675 C25.578468822753905,3.2647755030212675 27.219093822753905,3.4522755030212675 28.996436822753907,3.8389945030212385 C30.773780822753906,4.225712503021212 32.258155822753906,4.710087503021212 33.469093822753905,5.303837503021212 L33.469093822753905,17.27649450302124 " id="svg_10"/>
<path style=" stroke:none;fill-rule:nonzero;fill:rgb(0%,49.01886%,77.255249%);fill-opacity:1;" d="M107.41831182275388,15.557744503021238 C110.8128438227539,15.557744503021238 113.56674982275393,12.807744503021238 113.56674982275393,9.40930650302124 C113.56674982275393,6.0147755030212675 110.8128438227539,3.2647755030212675 107.41831182275388,3.2647755030212675 C104.0237808227539,3.2647755030212675 101.2737808227539,6.0147755030212675 101.2737808227539,9.40930650302124 C101.2737808227539,12.807744503021238 104.0237808227539,15.557744503021238 107.41831182275388,15.557744503021238 " id="svg_11"/>
<path style=" stroke:none;fill-rule:nonzero;fill:rgb(0%,35.68573%,19.215393%);fill-opacity:1;" d="M112.7347188227539,24.18665050302127 C112.7347188227539,22.35852550302127 113.2503438227539,20.65149450302124 114.1409688227539,19.20618150302124 L100.69956182275388,19.20618150302124 C101.59018682275388,20.65149450302124 102.1019058227539,22.35852550302127 102.1019058227539,24.18665050302127 L102.1019058227539,51.43665050302127 C102.1019058227539,53.264775503021276 101.59018682275388,54.96790050302127 100.7034688227539,56.413212503021214 L114.13706182275388,56.413212503021214 C113.2503438227539,54.96790050302127 112.7347188227539,53.264775503021276 112.7347188227539,51.43665050302127 L112.7347188227539,24.18665050302127 " id="svg_12"/>
<path style=" stroke:none;fill-rule:nonzero;fill:rgb(0%,35.68573%,19.215393%);fill-opacity:1;" d="M96.4847188227539,51.43665050302127 L96.4847188227539,28.96399450302124 C96.4847188227539,28.90930650302124 96.4847188227539,28.85852550302127 96.4847188227539,28.80774450302124 L96.4847188227539,28.58118150302124 L96.4769058227539,28.585087503021214 C96.19174982275393,19.475712503021214 87.32456182275388,19.210087503021214 87.32456182275388,19.210087503021214 C82.3987808227539,19.210087503021214 80.0550308227539,21.42102550302127 79.3245618227539,22.29211950302124 L79.3245618227539,19.210087503021214 L67.2933118227539,19.210087503021214 C68.1800308227539,20.65540050302127 68.6956558227539,22.35852550302127 68.6956558227539,24.18665050302127 L68.6956558227539,51.43665050302127 C68.6956558227539,53.264775503021276 68.1800308227539,54.96790050302127 67.2933118227539,56.413212503021214 L80.7269058227539,56.413212503021214 C79.8401868227539,54.96790050302127 79.3245618227539,53.264775503021276 79.3245618227539,51.43665050302127 L79.3245618227539,30.34290050302127 C80.2503438227539,29.585087503021214 81.40268682275388,29.15540050302127 82.62924982275393,29.15540050302127 C83.7425308227539,29.15540050302127 84.59018682275388,29.61243150302124 85.1800308227539,30.53430650302124 C85.76206182275388,31.45227550302127 85.8519058227539,32.710087503021214 85.8519058227539,34.413212503021214 L85.8519058227539,51.43665050302127 C85.8519058227539,53.264775503021276 85.34018682275388,54.96790050302127 84.4534688227539,56.413212503021214 L97.8831558227539,56.413212503021214 C96.99643682275388,54.96790050302127 96.4847188227539,53.264775503021276 96.4847188227539,51.43665050302127 " id="svg_13"/>
<path style=" stroke:none;fill-rule:nonzero;fill:rgb(0%,35.68573%,19.215393%);fill-opacity:1;" d="M151.21518682275388,56.413212503021214 L164.6487808227539,56.413212503021214 C163.7581558227539,54.96790050302127 163.24643682275388,53.264775503021276 163.24643682275388,51.43665050302127 L163.24643682275388,28.96399450302124 L163.2503438227539,28.96399450302124 C163.2503438227539,28.90930650302124 163.2503438227539,28.85852550302127 163.24643682275388,28.80774450302124 L163.24643682275388,28.58118150302124 L163.2425308227539,28.585087503021214 C162.95737482275393,19.475712503021214 154.0862808227539,19.210087503021214 154.0862808227539,19.210087503021214 C154.08237482275393,19.210087503021214 154.0784688227539,19.210087503021214 154.07456182275388,19.210087503021214 C153.1878438227539,19.17493150302124 148.09799982275393,19.17493150302124 144.5628438227539,23.23743150302124 C141.9378438227539,19.35852550302127 136.98081182275388,19.210087503021214 136.98081182275388,19.210087503021214 C132.0628438227539,19.210087503021214 129.7190938227539,21.42102550302127 128.98862482275393,22.29211950302124 L128.98862482275393,19.210087503021214 L116.9534688227539,19.210087503021214 C117.84018682275388,20.65540050302127 118.3597188227539,22.35852550302127 118.3597188227539,24.18665050302127 L118.3597188227539,51.43665050302127 C118.3597188227539,53.264775503021276 117.8440938227539,54.96790050302127 116.9534688227539,56.413212503021214 L130.38706182275388,56.413212503021214 C129.5003438227539,54.96790050302127 128.98862482275393,53.264775503021276 128.98862482275393,51.43665050302127 L128.98862482275393,30.34290050302127 C129.91049982275393,29.585087503021214 131.0628438227539,29.15540050302127 132.29331182275388,29.15540050302127 C133.40268682275388,29.15540050302127 134.25424982275393,29.61243150302124 134.84018682275388,30.53430650302124 C135.4222188227539,31.45227550302127 135.51206182275388,32.710087503021214 135.51206182275388,34.413212503021214 L135.51206182275388,51.43665050302127 C135.51206182275388,53.264775503021276 135.0003438227539,54.96790050302127 134.1097188227539,56.413212503021214 L147.5472188227539,56.413212503021214 C146.66049982275393,54.96790050302127 146.14487482275393,53.264775503021276 146.14487482275393,51.43665050302127 L146.14487482275393,30.303837503021214 C147.05893682275388,29.569462503021214 148.1878438227539,29.15540050302127 149.39487482275393,29.15540050302127 C150.50424982275393,29.15540050302127 151.3519058227539,29.61243150302124 151.94174982275393,30.53430650302124 C152.5237808227539,31.45227550302127 152.6175308227539,32.710087503021214 152.6175308227539,34.413212503021214 L152.6175308227539,51.43665050302127 C152.6175308227539,53.264775503021276 152.09799982275393,54.96790050302127 151.21518682275388,56.413212503021214 " id="svg_14"/>
<path style=" stroke:none;fill-rule:nonzero;fill:rgb(0%,49.01886%,77.255249%);fill-opacity:1;" d="M251.1722188227539,47.91711950302124 C250.5315938227539,48.34290050302127 249.7815938227539,48.600712503021214 249.05112482275393,48.62805650302124 C246.6097188227539,48.62024450302124 245.14487482275393,46.51477550302127 245.93393682275388,44.29211950302124 C246.72299982275393,42.07336950302124 249.4456558227539,41.07336950302124 249.4456558227539,41.07336950302124 C249.9300308227539,40.874150503021276 250.5550308227539,40.65540050302127 251.17612482275393,40.49524450302124 zM261.8362808227539,51.43665050302127 L261.8362808227539,33.40149450302124 C261.83237482275393,23.65540050302127 257.1487808227539,19.20618150302124 250.51987482275393,19.210087503021214 C247.19956182275388,19.210087503021214 244.4690938227539,19.89368150302124 242.58237482275393,20.57727550302127 L239.6331558227539,29.06165050302127 C239.6331558227539,29.06165050302127 251.2034688227539,23.60852550302127 251.2034688227539,32.46790050302127 L251.2034688227539,33.006962503021214 C251.2034688227539,33.006962503021214 236.51206182275388,35.24915050302127 236.19956182275388,46.725712503021214 C236.1956558227539,46.850712503021214 236.19174982275393,47.40540050302127 236.19174982275393,47.53430650302124 C236.19174982275393,47.53430650302124 236.19956182275388,47.53430650302124 236.2034688227539,47.53430650302124 C236.0472188227539,52.38586950302124 239.7659688227539,56.38586950302124 245.3440938227539,56.40930650302124 C247.34018682275388,56.33899450302124 249.39487482275393,55.631962503021214 251.1644058227539,54.460087503021214 L251.1644058227539,56.413212503021214 L263.2347188227539,56.413212503021214 C262.34799982275393,54.96790050302127 261.8362808227539,53.264775503021276 261.8362808227539,51.43665050302127 " id="svg_15"/>
<path style=" stroke:none;fill-rule:nonzero;fill:rgb(0%,49.01886%,77.255249%);fill-opacity:1;" d="M295.2464368227539,51.43665050302127 L295.2464368227539,28.96399450302124 C295.2464368227539,28.90930650302124 295.2464368227539,28.85852550302127 295.2464368227539,28.80774450302124 L295.2464368227539,28.58118150302124 L295.2425308227539,28.585087503021214 C294.95737482275393,19.475712503021214 286.08237482275393,19.210087503021214 286.08237482275393,19.210087503021214 C281.1644058227539,19.210087503021214 278.81674982275393,21.42102550302127 278.0862808227539,22.29211950302124 L278.0862808227539,19.210087503021214 L266.05112482275393,19.210087503021214 C266.9378438227539,20.65540050302127 267.45737482275393,22.35852550302127 267.45737482275393,24.18665050302127 L267.45737482275393,51.43665050302127 C267.45737482275393,53.264775503021276 266.94174982275393,54.96790050302127 266.0550308227539,56.413212503021214 L279.48862482275393,56.413212503021214 C278.6019058227539,54.96790050302127 278.0862808227539,53.264775503021276 278.0862808227539,51.43665050302127 L278.0862808227539,30.34290050302127 C279.0081558227539,29.585087503021214 280.1683118227539,29.15540050302127 281.39487482275393,29.15540050302127 C282.50424982275393,29.15540050302127 283.34799982275393,29.61243150302124 283.94174982275393,30.53430650302124 C284.51987482275393,31.45227550302127 284.61362482275393,32.710087503021214 284.61362482275393,34.413212503021214 L284.61362482275393,51.43665050302127 C284.61362482275393,53.264775503021276 284.09799982275393,54.96790050302127 283.2112808227539,56.413212503021214 L296.6487808227539,56.413212503021214 C295.7581558227539,54.96790050302127 295.2464368227539,53.264775503021276 295.2464368227539,51.43665050302127 " id="svg_16"/>
<path style=" stroke:none;fill-rule:nonzero;fill:rgb(0%,49.01886%,77.255249%);fill-opacity:1;" d="M219.37924982275393,45.13586950302124 C217.96518682275388,46.43665050302127 215.94956182275388,47.077275503021276 213.3362808227539,47.077275503021276 L213.14487482275393,47.077275503021276 L213.14487482275393,33.014775503021276 L213.2815938227539,33.014775503021276 C215.91831182275388,33.014775503021276 217.9534688227539,33.585087503021214 219.3675308227539,34.73352550302127 C220.7894058227539,35.874150503021276 221.4925308227539,37.51086950302124 221.4925308227539,39.631962503021214 C221.4925308227539,42.01868150302124 220.7972188227539,43.85461950302124 219.37924982275393,45.13586950302124 zM213.84018682275388,12.09680650302124 C215.91831182275388,12.09680650302124 217.51987482275393,12.604619503021238 218.6565938227539,13.62805650302124 C219.7894058227539,14.64368150302124 220.35581182275388,16.100712503021214 220.35581182275388,18.006962503021214 C220.35581182275388,20.131962503021214 219.7581558227539,21.772587503021214 218.57456182275388,22.91711950302124 C217.3753438227539,24.053837503021214 215.69956182275388,24.631962503021214 213.50424982275393,24.631962503021214 L213.14487482275393,24.631962503021214 L213.14487482275393,12.09680650302124 zM229.16049982275393,29.756962503021214 C228.12924982275393,28.897587503021214 226.9534688227539,28.15930650302124 225.5940938227539,27.54993150302124 C226.2190938227539,27.210087503021214 226.8050308227539,26.82336950302124 227.32456182275388,26.39368150302124 C230.1956558227539,24.08118150302124 231.6331558227539,20.81555650302124 231.6331558227539,16.57727550302127 C231.6331558227539,12.413212503021212 230.1800308227539,9.15540050302127 227.2503438227539,6.7960255030212675 C224.3284688227539,4.444462503021212 220.2659688227539,3.2647755030212675 215.0940938227539,3.2647755030212675 L200.22299982275393,3.2647755030212675 C201.11362482275393,4.710087503021212 201.62924982275393,6.413212503021212 201.62924982275393,8.241337503021212 L201.62924982275393,51.43665050302127 C201.62924982275393,53.264775503021276 201.11362482275393,54.96790050302127 200.2269058227539,56.413212503021214 L216.04331182275388,56.413212503021214 C221.75424982275393,56.413212503021214 226.1644058227539,55.092900503021276 229.26987482275393,52.44055650302124 C232.37143682275388,49.79602550302127 233.9222188227539,46.01086950302124 233.9222188227539,41.100712503021214 C233.9222188227539,36.186650503021276 232.33237482275393,32.40540050302127 229.16049982275393,29.756962503021214 " id="svg_17"/>
<path style=" stroke:none;fill-rule:nonzero;fill:rgb(0%,49.01886%,77.255249%);fill-opacity:1;" d="M331.0159688227539,52.874150503021276 C329.4651868227539,50.73743150302124 326.95737482275393,47.17493150302124 323.50424982275393,42.19055650302124 L319.6019058227539,36.57336950302124 L321.0237808227539,34.538212503021214 C324.4769058227539,29.70618150302124 328.75424982275393,25.12024450302124 330.4222188227539,22.991337503021214 C332.0862808227539,20.866337503021214 333.25424982275393,19.60461950302124 333.89487482275393,19.210087503021214 L320.1995618227539,19.210087503021214 C320.1409688227539,20.40149450302124 319.9534688227539,21.48743150302124 319.6019058227539,22.460087503021214 C319.2581558227539,23.43274450302124 318.6995618227539,24.51477550302127 317.9183118227539,25.68274450302124 L311.5003438227539,34.006962503021214 L311.5003438227539,8.241337503021212 C311.5003438227539,6.413212503021212 312.0120618227539,4.710087503021212 312.8987808227539,3.2647755030212675 L299.4612808227539,3.2647755030212675 C300.3519058227539,4.710087503021212 300.8675308227539,6.413212503021212 300.8675308227539,8.241337503021212 L300.8675308227539,51.43665050302127 C300.8675308227539,53.264775503021276 300.3519058227539,54.96790050302127 299.4651868227539,56.413212503021214 L312.8987808227539,56.413212503021214 C312.0081558227539,54.96790050302127 311.5003438227539,53.264775503021276 311.5003438227539,51.43665050302127 L311.5003438227539,41.54211950302124 L318.6019058227539,53.15540050302127 C318.7737808227539,53.444462503021214 318.9769058227539,53.83899450302124 319.2151868227539,54.32336950302124 C319.45737482275393,54.80774450302124 319.7894058227539,55.506962503021214 320.1878438227539,56.413212503021214 L333.89487482275393,56.413212503021214 C333.5472188227539,56.194462503021214 332.5862808227539,55.01086950302124 331.0159688227539,52.874150503021276 " id="svg_18"/>
</g></g></svg>